<svg width="156" height="32" viewBox="0 0 156 32" fill="none" xmlns="http://www.w3.org/2000/svg">
<g clip-path="url(#clip0_1_2)">
<mask id="mask0_1_2" style="mask-type:luminance" maskUnits="userSpaceOnUse" x="0" y="0" width="156" height="32">
<path d="M156 0H0V32H156V0Z" fill="white"/>
</mask>
<g mask="url(#mask0_1_2)">
<path d="M56.0333 0.0661312C55.0127 -0.176512 53.9708 0.266573 53.5036 1.09999C53.4821 1.1422 53.3951 1.30045 53.3734 1.3532C51.8642 5.05611 44.8614 3.91677 43.5368 3.66357C43.5043 3.65302 43.4824 3.65302 43.4499 3.64247C43.428 3.64247 43.4066 3.63192 43.3848 3.63192C43.3741 3.63192 43.363 3.62137 43.3523 3.62137C43.3416 3.62137 43.3304 3.62137 43.3197 3.61082C42.4293 3.44203 41.5064 3.36818 40.5404 3.36818C36.5774 3.36818 33.2225 4.76074 30.4539 7.54586C27.6962 10.331 26.3174 13.7174 26.3174 17.7262C26.3174 21.7246 27.6962 25.1216 30.4539 27.8962C33.2659 30.6286 36.6317 32 40.5404 32C44.4489 32 47.8361 30.6074 50.7024 27.8223C53.5146 24.9845 54.9261 21.6191 54.9261 17.7262C54.9261 13.8229 53.5254 10.4365 50.7024 7.54586C49.6386 6.49086 48.4986 5.63636 47.2609 4.98229C50.3006 5.94229 54.7848 5.879 57.0649 3.70577C57.0867 3.69522 57.0974 3.67412 57.1193 3.66357C57.4015 3.39983 57.6186 3.05169 57.727 2.66135C58.0096 1.52198 57.2494 0.361522 56.0333 0.0661312ZM47.9666 9.52916C49.7906 11.8079 50.7024 14.5403 50.7024 17.7262C50.7024 20.8701 49.7362 23.6447 47.8146 26.0817C45.9363 28.4659 43.515 29.6474 40.5511 29.6474C37.6305 29.6474 35.2094 28.4553 33.2877 26.0817C31.4094 23.6974 30.4756 20.944 30.4756 17.8107C30.4756 14.6247 31.4094 11.8079 33.2877 9.38152C35.2203 6.90232 37.6414 5.65745 40.5511 5.65745C43.5043 5.65745 45.9796 6.94452 47.9666 9.52916Z" fill="white"/>
<path d="M4.94002 3.71641C4.52744 5.54152 4.31028 7.3666 4.31028 9.19175V17.0196L13.148 8.0418C14.136 7.02903 15.3086 5.58371 16.6657 3.70587H21.6709C20.1075 4.71863 18.6744 5.91075 17.3715 7.28221L7.58919 17.1673L19.3258 28.1917C20.6829 29.4577 22.1921 30.597 23.8641 31.6097H16.9807C15.8298 29.9851 14.5812 28.5715 13.2241 27.3477L5.08117 19.7414L4.29945 20.501V26.0501C4.29945 28.0228 4.50573 29.8796 4.92918 31.5992H0C0.314857 29.7741 0.466864 27.928 0.466864 26.0501V9.17062C0.466864 7.39826 0.314857 5.57314 0 3.69531H4.94002V3.71641Z" fill="white"/>
<path d="M68.4574 5.99554C68.3054 7.67294 68.2185 8.72789 68.2185 9.19208V18.0116H70.4875C72.3658 18.0116 73.8535 17.4841 74.9498 16.4186C76.1006 15.3004 76.6761 13.855 76.6761 12.0827C76.6761 10.3103 76.155 8.86506 75.1126 7.74675C73.8098 6.57574 72.2681 5.99554 70.4985 5.99554H68.4574ZM71.899 20.2904L70.4875 20.3642H68.2185V26.0716C68.2185 28.0444 68.4246 29.9011 68.8481 31.6207H63.9189C64.2337 29.7956 64.3857 27.9494 64.3857 26.0716V9.19208C64.3857 7.41972 64.2337 5.59464 63.9189 3.7168H70.4875C73.6146 3.7168 76.1006 4.49746 77.9249 6.06936C79.8572 7.64127 80.8237 9.64577 80.8237 12.0722C80.8237 14.4564 79.8572 16.4292 77.9249 18.001C77.5558 18.2542 77.1973 18.5075 76.8281 18.7606C76.459 19.0139 76.068 19.2143 75.6556 19.3725L81.0515 27.2848C82.1483 28.8566 83.3423 30.302 84.6562 31.6207H78.9454C77.9574 29.3947 77.0452 27.7384 76.2093 26.6835L71.899 20.2904Z" fill="white"/>
<path d="M91.627 31.6207C91.9418 29.7956 92.0939 27.9494 92.0939 26.0716V9.19208C92.0939 7.41972 91.9418 5.59464 91.627 3.7168H102.343C106.62 3.7168 110.062 5.08826 112.668 7.82062C115.274 10.5107 116.576 13.7496 116.576 17.5579C116.576 21.3137 115.274 24.6051 112.668 27.443C110.116 30.2282 106.664 31.6207 102.343 31.6207H91.627ZM95.9373 26.0716C95.9373 26.578 96.0134 27.6646 96.1761 29.342H102.353C105.383 29.342 107.88 28.1287 109.867 25.6918C111.539 23.6662 112.375 20.9233 112.375 17.4841C112.375 14.0449 111.408 11.2703 109.476 9.19208C107.597 7.06106 105.219 5.99554 102.353 5.99554H96.1761C96.024 7.51468 95.9373 8.58021 95.9373 9.19208V26.0716Z" fill="white"/>
<path d="M130.467 3.7168C130.054 5.54188 129.837 7.367 129.837 9.19208V26.0716C129.837 28.0444 130.044 29.9011 130.467 31.6207H125.538C125.853 29.7956 126.005 27.9494 126.005 26.0716V9.19208C126.005 7.41972 125.853 5.59464 125.538 3.7168H130.467Z" fill="white"/>
<path d="M144.952 26.0708C144.952 26.4295 145.028 27.5161 145.191 29.3412H150.272C152.357 29.3412 154.268 29.1619 155.982 28.8137V31.6305H140.642C140.956 29.8054 141.109 27.9592 141.109 26.0813V9.20182C141.109 7.42952 140.956 5.6044 140.642 3.72656H153.713V6.53278C151.521 6.17408 149.62 6.0053 148.003 6.0053H145.191C145.137 6.56445 145.082 7.12359 145.039 7.68269C144.985 8.24184 144.963 8.74822 144.963 9.20182V16.5022H148.014C149.316 16.5022 151.217 16.3018 153.725 15.8904V19.3085C152.107 18.9497 150.207 18.781 148.014 18.781H144.952V26.0708Z" fill="white"/>
</g>
</g>
<defs>
<clipPath id="clip0_1_2">
<rect width="156" height="32" fill="white"/>
</clipPath>
</defs>
</svg>
